<svg xmlns="http://www.w3.org/2000/svg" viewBox="0 0 703 703"><defs><style>.cls-1,.cls-2{fill:#2e2e2e;}.cls-2{fill-rule:evenodd;}</style></defs><title>sedona-chip-darkgray</title><g id="Layer_2" data-name="Layer 2"><g id="Layer_1-2" data-name="Layer 1"><g id="Icons"><g id="Desktop-Copy"><g id="Sedona-Chip"><g id="Group-2"><g id="Line"><path class="cls-1" d="M286.7,66.1a12.67,12.67,0,0,1-1.1-1.3A12.67,12.67,0,0,0,286.7,66.1Z"/><path class="cls-1" d="M289.2,68.4a6.89,6.89,0,0,1-1.3-1.1A12.67,12.67,0,0,0,289.2,68.4Z"/><path class="cls-1" d="M312.1,67.3a12.67,12.67,0,0,1-1.3,1.1A12.67,12.67,0,0,0,312.1,67.3Z"/><path class="cls-1" d="M314.4,64.8a6.89,6.89,0,0,1-1.1,1.3A12.67,12.67,0,0,0,314.4,64.8Z"/></g><g id="Line-Copy"><path class="cls-1" d="M389.7,636.9a12.67,12.67,0,0,0-1.1,1.3A12.67,12.67,0,0,1,389.7,636.9Z"/><path class="cls-1" d="M392.2,634.6a6.89,6.89,0,0,0-1.3,1.1A12.67,12.67,0,0,1,392.2,634.6Z"/><path class="cls-1" d="M415.1,635.7a12.67,12.67,0,0,0-1.3-1.1A12.67,12.67,0,0,1,415.1,635.7Z"/><path class="cls-1" d="M417.4,638.2a6.89,6.89,0,0,0-1.1-1.3A12.67,12.67,0,0,1,417.4,638.2Z"/></g></g><g id="Group-2-Copy"><path class="cls-1" d="M62.8,418.7a2.19,2.19,0,0,0-.5.3h0A2.19,2.19,0,0,1,62.8,418.7Z"/><path class="cls-1" d="M66.1,416.3a12.67,12.67,0,0,1-1.3,1.1A12.67,12.67,0,0,0,66.1,416.3Z"/><path class="cls-1" d="M66.1,389.7a12.67,12.67,0,0,0-1.3-1.1A12.67,12.67,0,0,1,66.1,389.7Z"/><path class="cls-1" d="M68.4,413.8a6.89,6.89,0,0,1-1.1,1.3A12.67,12.67,0,0,0,68.4,413.8Z"/><path class="cls-1" d="M68.4,392.2a6.89,6.89,0,0,0-1.1-1.3A12.67,12.67,0,0,1,68.4,392.2Z"/><path class="cls-1" d="M635.7,312.1a12.67,12.67,0,0,1-1.1-1.3A12.67,12.67,0,0,0,635.7,312.1Z"/><path class="cls-1" d="M635.7,287.9a12.67,12.67,0,0,0-1.1,1.3A12.67,12.67,0,0,1,635.7,287.9Z"/><path class="cls-1" d="M638.2,314.4a6.89,6.89,0,0,1-1.3-1.1A12.67,12.67,0,0,0,638.2,314.4Z"/><path class="cls-1" d="M638.2,285.6a6.89,6.89,0,0,0-1.3,1.1A12.67,12.67,0,0,1,638.2,285.6Z"/></g><g id="Rectangle"><g id="path-1"><path class="cls-2" d="M283.5,279.2V283h-2.2A20.8,20.8,0,0,1,283.5,279.2Z"/></g></g><g id="iiiii"><path class="cls-1" d="M283.5,279.2V283h-2.2A20.8,20.8,0,0,1,283.5,279.2Z"/></g><g id="Oval"><g id="path-2-2" data-name="path-2"><path class="cls-2" d="M389.7,661.1a12.67,12.67,0,0,1-1.1-1.3A12.67,12.67,0,0,0,389.7,661.1Z"/><path class="cls-2" d="M389.7,636.9a12.67,12.67,0,0,0-1.1,1.3A12.67,12.67,0,0,1,389.7,636.9Z"/><path class="cls-2" d="M392.2,663.4a6.89,6.89,0,0,1-1.3-1.1A12.67,12.67,0,0,0,392.2,663.4Z"/><path class="cls-2" d="M392.2,634.6a6.89,6.89,0,0,0-1.3,1.1A12.67,12.67,0,0,1,392.2,634.6Z"/><path class="cls-2" d="M415.1,662.3a12.67,12.67,0,0,1-1.3,1.1A12.67,12.67,0,0,0,415.1,662.3Z"/><path class="cls-2" d="M415.1,635.7a12.67,12.67,0,0,0-1.3-1.1A12.67,12.67,0,0,1,415.1,635.7Z"/><path class="cls-2" d="M417.4,659.8a6.89,6.89,0,0,1-1.1,1.3A12.67,12.67,0,0,0,417.4,659.8Z"/><path class="cls-2" d="M417.4,638.2a6.89,6.89,0,0,0-1.1-1.3A12.67,12.67,0,0,1,417.4,638.2Z"/></g><path class="cls-1" d="M413.8,634.6a12.67,12.67,0,0,1,1.3,1.1A6.89,6.89,0,0,0,413.8,634.6Zm0,28.8a6.89,6.89,0,0,0,1.3-1.1A12.67,12.67,0,0,1,413.8,663.4Zm-25.2-25.2a12.67,12.67,0,0,1,1.1-1.3A6.89,6.89,0,0,0,388.6,638.2Zm0,21.6a6.89,6.89,0,0,0,1.1,1.3A12.67,12.67,0,0,1,388.6,659.8Z"/></g><g id="Oval-Copy"><g id="path-3"><path class="cls-2" d="M283.5,61.2a8.51,8.51,0,0,1-.6-1.7A11.5,11.5,0,0,0,283.5,61.2Z"/><path class="cls-2" d="M286.7,66.1a12.67,12.67,0,0,1-1.1-1.3A12.67,12.67,0,0,0,286.7,66.1Z"/><path class="cls-2" d="M286.7,41.9a12.67,12.67,0,0,0-1.1,1.3A12.67,12.67,0,0,1,286.7,41.9Z"/><path class="cls-2" d="M289.2,68.4a6.89,6.89,0,0,1-1.3-1.1A12.67,12.67,0,0,0,289.2,68.4Z"/><path class="cls-2" d="M289.2,39.6a6.89,6.89,0,0,0-1.3,1.1A12.67,12.67,0,0,1,289.2,39.6Z"/><path class="cls-2" d="M312.1,67.3a12.67,12.67,0,0,1-1.3,1.1A12.67,12.67,0,0,0,312.1,67.3Z"/><path class="cls-2" d="M312.1,40.7a12.67,12.67,0,0,0-1.3-1.1A12.67,12.67,0,0,1,312.1,40.7Z"/><path class="cls-2" d="M314.4,64.8a6.89,6.89,0,0,1-1.1,1.3A12.67,12.67,0,0,0,314.4,64.8Z"/><path class="cls-2" d="M314.4,43.2a6.89,6.89,0,0,0-1.1-1.3A12.67,12.67,0,0,1,314.4,43.2Z"/></g><path class="cls-1" d="M310.8,39.6a12.67,12.67,0,0,1,1.3,1.1A6.89,6.89,0,0,0,310.8,39.6Zm0,28.8a6.89,6.89,0,0,0,1.3-1.1A12.67,12.67,0,0,1,310.8,68.4Zm-24.59-26a4.27,4.27,0,0,0-.61.79l.24-.32,0,0a10.21,10.21,0,0,1,.82-.94ZM285.6,64.8a6.89,6.89,0,0,0,1.1,1.3A12.67,12.67,0,0,1,285.6,64.8Zm-2.7-5.3a2.09,2.09,0,0,0,.11.43c.13.43.34.82.49,1.27C283.3,60.6,283.1,60.1,282.9,59.5Z"/></g><g id="Oval-Copy-2"><g id="path-4"><path class="cls-2" d="M635.7,312.1a12.67,12.67,0,0,1-1.1-1.3A12.67,12.67,0,0,0,635.7,312.1Z"/><path class="cls-2" d="M635.7,287.9a12.67,12.67,0,0,0-1.1,1.3A12.67,12.67,0,0,1,635.7,287.9Z"/><path class="cls-2" d="M638.2,314.4a6.89,6.89,0,0,1-1.3-1.1A12.67,12.67,0,0,0,638.2,314.4Z"/><path class="cls-2" d="M638.2,285.6a6.89,6.89,0,0,0-1.3,1.1A12.67,12.67,0,0,1,638.2,285.6Z"/><path class="cls-2" d="M661.1,313.3a12.67,12.67,0,0,1-1.3,1.1A12.67,12.67,0,0,0,661.1,313.3Z"/><path class="cls-2" d="M661.1,286.7a12.67,12.67,0,0,0-1.3-1.1A12.67,12.67,0,0,1,661.1,286.7Z"/><path class="cls-2" d="M663.4,310.8a6.89,6.89,0,0,1-1.1,1.3A12.67,12.67,0,0,0,663.4,310.8Z"/><path class="cls-2" d="M663.4,289.2a6.89,6.89,0,0,0-1.1-1.3A12.67,12.67,0,0,1,663.4,289.2Z"/></g><path class="cls-1" d="M659.8,285.6a12.67,12.67,0,0,1,1.3,1.1A6.89,6.89,0,0,0,659.8,285.6Zm0,28.8a6.89,6.89,0,0,0,1.3-1.1A12.67,12.67,0,0,1,659.8,314.4Zm-25.2-25.2a12.67,12.67,0,0,1,1.1-1.3A6.89,6.89,0,0,0,634.6,289.2Zm0,21.6a6.89,6.89,0,0,0,1.1,1.3A12.67,12.67,0,0,1,634.6,310.8Z"/></g><g id="Oval-Copy-3"><g id="path-5"><path class="cls-2" d="M40.7,415.1a12.67,12.67,0,0,1-1.1-1.3A12.67,12.67,0,0,0,40.7,415.1Z"/><path class="cls-2" d="M40.7,390.9a12.67,12.67,0,0,0-1.1,1.3A12.67,12.67,0,0,1,40.7,390.9Z"/><path class="cls-2" d="M43.2,417.4a6.89,6.89,0,0,1-1.3-1.1A12.67,12.67,0,0,0,43.2,417.4Z"/><path class="cls-2" d="M43.2,388.6a6.89,6.89,0,0,0-1.3,1.1A12.67,12.67,0,0,1,43.2,388.6Z"/><path class="cls-2" d="M62.8,418.7a2.19,2.19,0,0,0-.5.3.76.76,0,0,1-.4.2c.2-.1.3-.1.4-.2A2.19,2.19,0,0,1,62.8,418.7Z"/><path class="cls-2" d="M66.1,416.3a12.67,12.67,0,0,1-1.3,1.1A12.67,12.67,0,0,0,66.1,416.3Z"/><path class="cls-2" d="M66.1,389.7a12.67,12.67,0,0,0-1.3-1.1A12.67,12.67,0,0,1,66.1,389.7Z"/><path class="cls-2" d="M68.4,413.8a6.89,6.89,0,0,1-1.1,1.3A12.67,12.67,0,0,0,68.4,413.8Z"/><path class="cls-2" d="M68.4,392.2a6.89,6.89,0,0,0-1.1-1.3A12.67,12.67,0,0,1,68.4,392.2Z"/></g><path class="cls-1" d="M64.8,388.6a12.67,12.67,0,0,1,1.3,1.1A6.89,6.89,0,0,0,64.8,388.6Zm0,28.8a6.89,6.89,0,0,0,1.3-1.1A12.67,12.67,0,0,1,64.8,417.4Zm-3,1.8.13,0a.43.43,0,0,0,.12-.05.17.17,0,0,0,.06-.06A.67.67,0,0,1,61.8,419.2Zm-22.2-27a12.67,12.67,0,0,1,1.1-1.3A6.89,6.89,0,0,0,39.6,392.2Zm0,21.6a6.89,6.89,0,0,0,1.1,1.3A12.67,12.67,0,0,1,39.6,413.8Z"/><path class="cls-1" d="M598.5,319a53.87,53.87,0,1,0-.8-36H573V162a38,38,0,0,0-38-38H419.5V53.5h-36V124h-64V104.4a54.08,54.08,0,1,0-36,1V124H168a38,38,0,0,0-38,38V283H54v36h76v64H104.2a54,54,0,1,0,1.4,36H130V529a38,38,0,0,0,38,38H283.5v82h36V567h64v31.6a54.08,54.08,0,1,0,36-1V567H535a38,38,0,0,0,38-38V419h76.5V383H573V319Zm32.4-19.3c0-.3.1-.4.1-.7a3.4,3.4,0,0,1,.1-1c0-.2.1-.5.1-.8s.1-.5.1-.8v-.1c0-.2.1-.4.1-.6v-.1c0-.1,0-.1.1-.2a4.33,4.33,0,0,1,.1-.5.37.37,0,0,1,.1-.3c.1-.2.1-.4.2-.6a3.55,3.55,0,0,1,.4-.9.35.35,0,0,1,.1-.2c.1-.2.2-.5.3-.7.3-.5.5-1,.8-1.5a13,13,0,0,1,1-1.5,6.89,6.89,0,0,1,1.1-1.3l1.2-1.2a12.67,12.67,0,0,1,1.3-1.1c.5-.3,1-.7,1.5-1a10.93,10.93,0,0,1,1.5-.8c.3-.1.6-.3.9-.4a6.89,6.89,0,0,0,1-.4c1-.3,2-.6,3-.8.2,0,.4-.1.6-.1s.4-.1.6-.1h3.7c.3,0,.5.1.8.1s.4.1.6.1.2,0,.2.1a4.33,4.33,0,0,1,.5.1c.2.1.5.1.7.2l.9.3a3.55,3.55,0,0,1,.9.4c.3.1.6.3.9.4.5.3,1,.5,1.5.8a13,13,0,0,1,1.5,1,6.89,6.89,0,0,1,1.3,1.1l1.2,1.2a12.67,12.67,0,0,1,1.1,1.3c.3.5.7.9,1,1.5a10.93,10.93,0,0,1,.8,1.5,4.88,4.88,0,0,1,.3.7.35.35,0,0,0,.1.2,3.55,3.55,0,0,0,.4.9c.1.2.1.4.2.6s.1.2.1.3a1.09,1.09,0,0,1,.1.5c0,.1,0,.1.1.2v.1a1.27,1.27,0,0,1,.1.6v.1c0,.2.1.5.1.8s.1.5.1.8.1.7.1,1v2a3.4,3.4,0,0,1-.1,1c0,.2-.1.5-.1.8s-.1.5-.1.8v.1c0,.2-.1.4-.1.6v.1c0,.1,0,.1-.1.2a4.33,4.33,0,0,1-.1.5l-.3.9a3.55,3.55,0,0,1-.4.9.35.35,0,0,1-.1.2c-.1.2-.2.5-.3.7-.3.5-.5,1-.8,1.5a13,13,0,0,1-1,1.5,6.89,6.89,0,0,1-1.1,1.3l-1.2,1.2a12.67,12.67,0,0,1-1.3,1.1c-.5.3-1,.7-1.5,1a10.93,10.93,0,0,1-1.5.8c-.2.1-.5.2-.7.3h-.1a1.69,1.69,0,0,1-.5.2c-.1,0-.2.1-.3.1a1.88,1.88,0,0,1-.8.2,3.09,3.09,0,0,1-.8.2c-.3.1-.6.1-.9.2s-.5.1-.7.1h-.3a.9.9,0,0,0-.5.1c-.2,0-.5.1-.8.1h-3.5c-.3,0-.5-.1-.8-.1s-.4-.1-.6-.1-.2,0-.2-.1a4.33,4.33,0,0,1-.5-.1c-.2-.1-.5-.1-.7-.2l-.9-.3a3.55,3.55,0,0,1-.9-.4c-.3-.1-.6-.3-.9-.4-.5-.3-1-.5-1.5-.8a13,13,0,0,1-1.5-1,6.89,6.89,0,0,1-1.3-1.1l-1.2-1.2a12.67,12.67,0,0,1-1.1-1.3c-.3-.5-.7-.9-1-1.5a10.93,10.93,0,0,1-.8-1.5,4.88,4.88,0,0,1-.3-.7.35.35,0,0,0-.1-.2,3.55,3.55,0,0,0-.4-.9l-.3-.9a1.09,1.09,0,0,1-.1-.5c0-.1,0-.1-.1-.2V304a1.27,1.27,0,0,1-.1-.6v-.1c0-.2-.1-.5-.1-.8s-.1-.5-.1-.8-.1-.7-.1-1ZM72.1,403c0,.3-.1.7-.1,1v1c0,.3-.1.5-.1.8s-.1.4-.1.6,0,.2-.1.2a4.33,4.33,0,0,1-.1.5c-.1.2-.1.5-.2.7l-.3.9a3.55,3.55,0,0,1-.4.9c-.1.3-.3.6-.4.9-.3.5-.5,1-.8,1.5a13,13,0,0,1-1,1.5,6.89,6.89,0,0,1-1.1,1.3L66.2,416a12.67,12.67,0,0,1-1.3,1.1c-.5.3-.9.7-1.5,1a7750427730470,7750427730470,0,0,0-1,.6.76.76,0,0,1-.4.2,4.88,4.88,0,0,1-.7.3.35.35,0,0,0-.2.1,3.55,3.55,0,0,0-.9.4l-.9.3a1.09,1.09,0,0,1-.5.1c-.1,0-.1,0-.2.1h-.1a1.27,1.27,0,0,1-.6.1h-.1c-.2,0-.5.1-.8.1s-.5.1-.8.1-.7.1-1,.1h-2a3.4,3.4,0,0,1-1-.1c-.2,0-.5-.1-.8-.1s-.5-.1-.8-.1h-.1c-.2,0-.4-.1-.6-.1h-.1c-.1,0-.1,0-.2-.1a4.33,4.33,0,0,1-.5-.1l-.9-.3a3.55,3.55,0,0,1-.9-.4.35.35,0,0,1-.2-.1c-.2-.1-.5-.2-.7-.3-.5-.3-1-.5-1.5-.8a13,13,0,0,1-1.5-1,6.89,6.89,0,0,1-1.3-1.1l-1.2-1.2a12.67,12.67,0,0,1-1.1-1.3c-.3-.5-.7-1-1-1.5a10.93,10.93,0,0,1-.8-1.5c-.1-.3-.3-.6-.4-.9a3.55,3.55,0,0,0-.4-.9l-.3-.9c-.1-.2-.1-.5-.2-.7a1.09,1.09,0,0,1-.1-.5c0-.1,0-.2-.1-.2,0-.2-.1-.4-.1-.6s-.1-.5-.1-.8v-4c0-.3.1-.5.1-.8s.1-.4.1-.6,0-.2.1-.2a4.33,4.33,0,0,1,.1-.5c.1-.2.1-.5.2-.7l.3-.9a3.55,3.55,0,0,1,.4-.9c.1-.3.3-.6.4-.9.3-.5.5-1,.8-1.5a13,13,0,0,1,1-1.5,6.89,6.89,0,0,1,1.1-1.3l1.2-1.2a12.67,12.67,0,0,1,1.3-1.1c.5-.3.9-.7,1.5-1a10.93,10.93,0,0,1,1.5-.8,4.88,4.88,0,0,1,.7-.3.35.35,0,0,0,.2-.1,3.55,3.55,0,0,0,.9-.4c.2-.1.4-.1.6-.2s.2-.1.3-.1a1.09,1.09,0,0,1,.5-.1c.1,0,.1,0,.2-.1h.1a1.27,1.27,0,0,1,.6-.1h.1c.2,0,.5-.1.8-.1s.5-.1.8-.1.7-.1,1-.1h2a3.4,3.4,0,0,1,1,.1c.2,0,.5.1.8.1s.5.1.8.1h.1c.2,0,.4.1.6.1h.1c.1,0,.1,0,.2.1a4.33,4.33,0,0,1,.5.1.37.37,0,0,1,.3.1c.2.1.4.1.6.2a3.55,3.55,0,0,1,.9.4.35.35,0,0,1,.2.1c.2.1.5.2.7.3.5.3,1,.5,1.5.8a13,13,0,0,1,1.5,1,6.89,6.89,0,0,1,1.3,1.1l1.2,1.2a12.67,12.67,0,0,1,1.1,1.3c.3.5.7,1,1,1.5a10.93,10.93,0,0,1,.8,1.5c.1.3.3.6.4.9a3.55,3.55,0,0,0,.4.9l.3.9c.1.2.1.5.2.7a1.09,1.09,0,0,1,.1.5c0,.1,0,.2.1.2,0,.2.1.4.1.6s.1.5.1.8ZM282.9,59.5a2.35,2.35,0,0,1-.2-.8,23.25,23.25,0,0,1-.5-2.8,2.49,2.49,0,0,0-.1-.8V53a3.4,3.4,0,0,1,.1-1c0-.2.1-.5.1-.8s.1-.5.1-.8v-.1a1.85,1.85,0,0,1,.2-.7c.1-.2.1-.5.2-.8l.3-.9a3.55,3.55,0,0,1,.4-.9c.1-.3.3-.6.4-.9.3-.5.5-1,.8-1.5a13,13,0,0,1,1-1.5l.14-.22,0,0a4.46,4.46,0,0,1,.33-.43l.49-.51.1-.1,1.2-1.2a2.09,2.09,0,0,1,.22-.2,7.94,7.94,0,0,1,.72-.62l0,0,.32-.24c.5-.3.9-.7,1.5-1a10.93,10.93,0,0,1,1.5-.8c.3-.1.6-.3.9-.4a3.55,3.55,0,0,0,.9-.4l.9-.3c.2-.1.5-.1.8-.2s.5-.1.7-.2h.1c.2,0,.5-.1.8-.1s.5-.1.8-.1.7-.1,1-.1h2a3.4,3.4,0,0,1,1,.1c.2,0,.5.1.8.1s.5.1.8.1h.1a1.85,1.85,0,0,1,.7.2c.2.1.5.1.8.2l.9.3a3.55,3.55,0,0,1,.9.4c.3.1.6.3.9.4.5.3,1,.5,1.5.8a13,13,0,0,1,1.5,1,6.89,6.89,0,0,1,1.3,1.1l1.2,1.2a12.67,12.67,0,0,1,1.1,1.3c.3.5.7.9,1,1.5a10.93,10.93,0,0,1,.8,1.5,18.44,18.44,0,0,1,1.5,4.7,1.7,1.7,0,0,1,.1.7c0,.3.1.6.1.9v2.5a3.4,3.4,0,0,1-.1,1c0,.2-.1.5-.1.8s-.1.5-.1.8v.1a1.85,1.85,0,0,1-.2.7c-.1.2-.1.5-.2.8l-.3.9a3.55,3.55,0,0,1-.4.9c-.1.3-.3.6-.4.9-.3.5-.5,1-.8,1.5a13,13,0,0,1-1,1.5,6.89,6.89,0,0,1-1.1,1.3l-1.2,1.2a12.67,12.67,0,0,1-1.3,1.1c-.5.3-.9.7-1.5,1a10.93,10.93,0,0,1-1.5.8c-.3.1-.6.3-.9.4a3.55,3.55,0,0,0-.9.4l-.9.3c-.2.1-.5.1-.8.2s-.5.1-.7.2h-.1c-.2,0-.5.1-.8.1s-.5.1-.8.1-.7.1-1,.1h-2a3.4,3.4,0,0,1-1-.1c-.2,0-.5-.1-.8-.1s-.5-.1-.8-.1h-.1a1.85,1.85,0,0,1-.7-.2c-.2-.1-.5-.1-.8-.2L294,71a3.55,3.55,0,0,1-.9-.4c-.3-.1-.6-.3-.9-.4-.5-.3-1-.5-1.5-.8a13,13,0,0,1-1.5-1,6.89,6.89,0,0,1-1.3-1.1l-1.2-1.2a12.67,12.67,0,0,1-1.1-1.3c-.3-.5-.7-.9-1-1.5a10.93,10.93,0,0,1-.8-1.5l-.3-.6A5.78,5.78,0,0,1,282.9,59.5ZM419.7,641.9a.18.18,0,0,0,0,.3c.1.1.1.3.2.4l.3.9a4.33,4.33,0,0,1,.1.5v.1c0,.1,0,.1.1.2s.1.2.1.3.1.5.2.8.1.6.2.9.1.6.1.9a2.49,2.49,0,0,0,.1.8v3.1c0,.3-.1.5-.1.8s-.1.4-.1.6,0,.2-.1.2a4.33,4.33,0,0,1-.1.5c-.1.2-.1.5-.2.7l-.3.9a3.55,3.55,0,0,1-.4.9c-.1.3-.3.6-.4.9-.3.5-.5,1-.8,1.5a13,13,0,0,1-1,1.5,6.44,6.44,0,0,1-1,1.2l-.1.1-.2.2-1,1a12.67,12.67,0,0,1-1.3,1.1c-.5.3-1,.7-1.5,1a10.93,10.93,0,0,1-1.5.8c-.3.1-.6.3-.9.4a3.55,3.55,0,0,0-.9.4l-.9.3c-.2.1-.5.1-.7.2a1.09,1.09,0,0,1-.5.1c-.1,0-.2,0-.2.1-.2,0-.4.1-.6.1s-.5.1-.8.1h-4c-.3,0-.5-.1-.8-.1s-.4-.1-.6-.1-.2,0-.2-.1a4.33,4.33,0,0,1-.5-.1c-.2-.1-.5-.1-.7-.2l-.9-.3a3.55,3.55,0,0,1-.9-.4c-.3-.1-.6-.3-.9-.4-.5-.3-1-.5-1.5-.8a13,13,0,0,1-1.5-1,6.89,6.89,0,0,1-1.3-1.1l-1.2-1.2a12.67,12.67,0,0,1-1.1-1.3c-.3-.5-.7-1-1-1.5a10.93,10.93,0,0,1-.8-1.5c-.1-.3-.3-.6-.4-.9a3.55,3.55,0,0,0-.4-.9l-.3-.9c-.1-.2-.1-.5-.2-.7a1.09,1.09,0,0,1-.1-.5c0-.1,0-.2-.1-.2,0-.2-.1-.4-.1-.6s-.1-.5-.1-.8V648a2.77,2.77,0,0,1,.1-.9v-.3a.9.9,0,0,1,.1-.5v-.4a1.85,1.85,0,0,1,.2-.7V645a1.85,1.85,0,0,1,.2-.7v-.2c0-.2.1-.3.1-.4s.1-.3.2-.5.1-.3.2-.5.1-.3.2-.5,0-.1.1-.2.2-.5.3-.7c.3-.5.5-1,.8-1.5a13,13,0,0,1,1-1.5,6.89,6.89,0,0,1,1.1-1.3l1.2-1.2a12.67,12.67,0,0,1,1.3-1.1c.5-.3,1-.7,1.5-1a10.93,10.93,0,0,1,1.5-.8c.3-.1.6-.3.9-.4a3.55,3.55,0,0,0,.9-.4l.9-.3c.2-.1.5-.1.7-.2a1.09,1.09,0,0,1,.5-.1c.1,0,.2,0,.2-.1.2,0,.4-.1.6-.1s.5-.1.8-.1h4c.3,0,.5.1.8.1s.4.1.6.1.2,0,.2.1a4.33,4.33,0,0,1,.5.1c.2.1.5.1.7.2l.9.3a3.55,3.55,0,0,1,.9.4c.3.1.6.3.9.4.5.3,1,.5,1.5.8a13,13,0,0,1,1.5,1,6.89,6.89,0,0,1,1.3,1.1l1.2,1.2a12.67,12.67,0,0,1,1.1,1.3c.3.5.7,1,1,1.5a10.93,10.93,0,0,1,.8,1.5ZM537,529a2,2,0,0,1-2,2H168a2,2,0,0,1-2-2V162a2,2,0,0,1,2-2H535a2,2,0,0,1,2,2Z"/><path class="cls-1" d="M478,260.9V429.5a18,18,0,0,1-35.7,3.6,13.73,13.73,0,0,1-.2-3.5V260.9a18,18,0,0,1,35.9,0Z"/><path class="cls-1" d="M424,301.9V430.3a17.39,17.39,0,0,1-4.5,11.7A18.06,18.06,0,0,1,388,430.2V302a18,18,0,0,1,31.4-11.9,18.17,18.17,0,0,1,4.4,9A12.3,12.3,0,0,1,424,301.9Z"/><path class="cls-1" d="M370,325.5V430.1a18,18,0,0,1-36,0V325.5a17.71,17.71,0,0,1,1-6.5,18,18,0,0,1,34,0,24.54,24.54,0,0,1,.8,2.9C369.9,323.1,370,324.3,370,325.5Z"/><path class="cls-1" d="M316,290.4V429.8a17.65,17.65,0,0,1-8.8,15.7,18.21,18.21,0,0,1-23.7-4.7,17.32,17.32,0,0,1-3.5-11.1V290.4a17.57,17.57,0,0,1,1.3-7.3h2.2v-3.8a17.71,17.71,0,0,1,12.9-7.1,18.12,18.12,0,0,1,18.3,10.9,19.09,19.09,0,0,1,1.1,4.1A17.2,17.2,0,0,1,316,290.4Z"/><path class="cls-1" d="M262,360.8v69.5a18,18,0,0,1-36,0V360.8a18,18,0,0,1,36,0Z"/></g></g></g></g></g></g></svg>