<?xml version="1.0" encoding="UTF-8"?>
<svg width="703px" height="703px" viewBox="0 0 703 703" version="1.1" xmlns="http://www.w3.org/2000/svg" xmlns:xlink="http://www.w3.org/1999/xlink">
    <!-- Generator: Sketch 49.3 (51167) - http://www.bohemiancoding.com/sketch -->
    <title>sedona-chip</title>
    <desc>Created with Sketch.</desc>
    <defs>
        <rect id="path-1" x="130" y="124" width="371" height="371" rx="20"></rect>
        <circle id="path-2" cx="367" cy="613" r="18"></circle>
        <circle id="path-3" cx="264" cy="18" r="18"></circle>
        <circle id="path-4" cx="613" cy="264" r="18"></circle>
        <circle id="path-5" cx="18" cy="367" r="18"></circle>
    </defs>
    <g id="Page-1" stroke="none" stroke-width="1" fill="none" fill-rule="evenodd">
        <g id="Sedona-Slash-Page-190219-|-Desktop" transform="translate(-675.000000, -1570.000000)">
            <g id="sedona-chip" transform="translate(711.000000, 1606.000000)">
                <g id="Group-2" transform="translate(264.000000, 35.000000)" stroke="#F9F9F9" stroke-linecap="square" stroke-width="36">
                    <path d="M1.5,0.5 L1.5,559.972966" id="Line"></path>
                    <path d="M101.5,0.5 L101.5,559.972966" id="Line-Copy"></path>
                </g>
                <g id="Group-2-Copy" transform="translate(315.500000, 315.000000) rotate(-90.000000) translate(-315.500000, -315.000000) translate(264.000000, 35.000000)" stroke="#F9F9F9" stroke-linecap="square" stroke-width="36">
                    <path d="M1.5,0.5 L1.5,559.972966" id="Line"></path>
                    <path d="M101.5,0.5 L101.5,559.972966" id="Line-Copy"></path>
                </g>
                <path d="" id="Path-2" stroke="#979797"></path>
                <g id="Rectangle">
                    <use fill="#FFFFFF" fill-rule="evenodd" xlink:href="#path-1"></use>
                    <rect stroke="#F9F9F9" stroke-width="36" x="112" y="106" width="407" height="407" rx="20"></rect>
                </g>
                <g id="iiiii" transform="translate(190.000000, 207.000000)" fill="#F9F9F9" fill-rule="nonzero">
                    <path d="M251.991503,102.237227 L251.991503,186.548917 C252.279941,195.961441 245.192043,203.98756 235.774668,204.912367 C226.357292,205.837174 217.82959,199.344541 216.263616,190.057474 C216.059213,188.899584 215.9733,187.724054 216.007196,186.548917 L216.007196,17.9042732 C216.007196,8.01601613 224.062558,1.88862103e-15 233.999349,0 C243.936141,-1.77058221e-15 251.991503,8.01601613 251.991503,17.9042732 L251.991503,102.237227 Z" id="Shape"></path>
                    <path d="M54.032574,116.778809 L54.032574,47.3510668 C53.6402964,37.9680539 60.8187766,29.9307883 70.3563342,29.0744409 C79.8938918,28.2180935 88.4417026,34.8433448 89.7939325,44.1401667 C89.9573607,45.2096718 90.0226822,46.2913888 89.9891127,47.3723311 C89.9891127,93.8417824 89.9891127,140.297058 89.9891127,186.738157 C90.217467,193.185911 86.839581,199.242059 81.1797412,202.532311 C75.5199014,205.822563 68.4800986,205.822563 62.8202588,202.532311 C57.160419,199.242059 53.782533,193.185911 54.0108873,186.738157 L54.032574,116.778809 Z" id="Shape"></path>
                    <path d="M162.064114,122.951522 C162.064114,101.600774 162.064114,80.2500258 162.064114,58.8992776 C162.004227,49.6117932 169.193567,41.8425642 178.568651,41.0634916 C187.943735,40.2844191 196.347573,46.7578499 197.861307,55.9245192 C197.979071,56.9045012 198.021935,57.8918448 197.989536,58.87818 C197.989536,101.664067 197.989536,144.449953 197.989536,187.23584 C197.989536,197.046715 189.933004,205 179.994768,205 C170.056532,205 162,197.046715 162,187.23584 C162.028495,165.814767 162.049867,144.386661 162.064114,122.951522 Z" id="Shape"></path>
                    <path d="M108.021374,134.78396 C108.021374,117.338013 108.021374,99.8920662 108.021374,82.4461191 C107.732857,73.0361275 114.822696,65.0121674 124.24265,64.0876092 C133.662604,63.1630509 142.192641,69.6539374 143.759044,78.9385059 C143.944407,80.098177 144.023105,81.2722384 143.99416,82.4461191 C143.99416,117.338013 143.99416,152.222821 143.99416,187.100543 C143.99416,196.98614 135.936593,205 125.99708,205 C116.057567,205 108,196.98614 108,187.100543 C108,169.668768 108.007125,152.229907 108.021374,134.78396 Z" id="Shape"></path>
                    <path d="M35.9905013,152.753317 C35.9905013,164.237033 35.9905013,175.741858 35.9905013,187.225573 C35.9905013,197.042118 27.9337532,205 17.9952507,205 C8.05674815,205 0,197.042118 0,187.225573 L0,117.774427 C3.03714837e-14,107.957882 8.05674815,100 17.9952507,100 C27.9337532,100 35.9905013,107.957882 35.9905013,117.774427 C36.0118734,129.427021 35.9905013,141.100724 35.9905013,152.753317 Z" id="Shape"></path>
                </g>
                <g id="Oval">
                    <use fill="#FFFFFF" fill-rule="evenodd" xlink:href="#path-2"></use>
                    <circle stroke="#F9F9F9" stroke-width="36" cx="367" cy="613" r="36"></circle>
                </g>
                <g id="Oval-Copy">
                    <use fill="#FFFFFF" fill-rule="evenodd" xlink:href="#path-3"></use>
                    <circle stroke="#F9F9F9" stroke-width="36" cx="264" cy="18" r="36"></circle>
                </g>
                <g id="Oval-Copy-2">
                    <use fill="#FFFFFF" fill-rule="evenodd" xlink:href="#path-4"></use>
                    <circle stroke="#F9F9F9" stroke-width="36" cx="613" cy="264" r="36"></circle>
                </g>
                <g id="Oval-Copy-3">
                    <use fill="#FFFFFF" fill-rule="evenodd" xlink:href="#path-5"></use>
                    <circle stroke="#F9F9F9" stroke-width="36" cx="18" cy="367" r="36"></circle>
                </g>
            </g>
        </g>
    </g>
</svg>