<svg xmlns="http://www.w3.org/2000/svg" viewBox="0 0 527.25 644.46"><defs><style>.cls-1{fill:#464545;}</style></defs><title>sedona-shield-darkgray</title><g id="Layer_2" data-name="Layer 2"><g id="Layer_1-2" data-name="Layer 1"><g id="Page-1"><g id="sedona-shied"><g id="Shape"><path class="cls-1" d="M263.62,0,0,117.17V292.92C0,371,26.2,449.51,73.78,514c47.73,64.66,113.54,110.58,185.3,129.3l4.54,1.19,4.55-1.19c71.76-18.72,137.57-64.64,185.3-129.3,47.58-64.46,73.78-143,73.78-221V117.17ZM491.25,292.92c0,143.68-97.53,277.88-227.63,314.29C133.53,570.8,36,436.6,36,292.92V140.56L263.62,39.4,491.25,140.56Z"/></g><g id="Group"><path class="cls-1" d="M390,227.9V396.55a18,18,0,0,1-35.73,3.51,17.24,17.24,0,0,1-.25-3.51V227.9a18,18,0,0,1,36,0Z"/><path class="cls-1" d="M219.18,412.53a18.31,18.31,0,0,1-18.36,0A17.56,17.56,0,0,1,192,396.74l0-70V257.35a18,18,0,0,1,35.76-3.21,17.47,17.47,0,0,1,.2,3.23V396.74A17.56,17.56,0,0,1,219.18,412.53Z"/><path class="cls-1" d="M336,268.88V397.24a18,18,0,0,1-36,0q0-32.14.06-64.29V268.9a18,18,0,0,1,35.8-3A19.5,19.5,0,0,1,336,268.88Z"/><path class="cls-1" d="M282,292.45V397.1a18,18,0,0,1-36,0q0-26.14,0-52.32V292.45a18,18,0,0,1,35.74-3.51A19.6,19.6,0,0,1,282,292.45Z"/><path class="cls-1" d="M174,362.75v34.48a18,18,0,0,1-36,0V327.77a18,18,0,0,1,36,0C174,339.43,174,351.1,174,362.75Z"/></g></g></g></g></g></svg>