<?xml version="1.0" encoding="utf-8"?>
<!-- Generator: Adobe Illustrator 23.0.1, SVG Export Plug-In . SVG Version: 6.00 Build 0)  -->
<svg version="1.1" id="Layer_1" xmlns="http://www.w3.org/2000/svg" xmlns:xlink="http://www.w3.org/1999/xlink" x="0px" y="0px"
	 viewBox="0 0 528 645" style="enable-background:new 0 0 528 645;" xml:space="preserve">
<style type="text/css">
	.st0{fill:#464545;}
</style>
<title>sedona-shied</title>
<desc>Created with Sketch.</desc>
<g id="Page-1">
	<g id="sedona-shied">
		<g id="Shape">
			<path class="st0" d="M263.6,0L0,117.2v175.8C0,371,26.2,449.5,73.8,514c47.7,64.7,113.5,110.6,185.3,129.3l4.5,1.2l4.5-1.2
				c71.8-18.7,137.6-64.6,185.3-129.3c47.6-64.5,73.8-143,73.8-221V117.2L263.6,0z M491.2,292.9c0,143.7-97.5,277.9-227.6,314.3
				C133.5,570.8,36,436.6,36,292.9V140.6L263.6,39.4l227.6,101.2V292.9z"/>
		</g>
		<g id="Group" transform="translate(138.000000, 210.000000)">
			<g>
				<path class="st0" d="M252,17.9v168.6c0.3,9.4-6.8,17.4-16.2,18.4c-9.4,0.9-17.9-5.6-19.5-14.8c-0.2-1.2-0.3-2.3-0.2-3.5V17.9
					C216,8,224.1,0,234,0S252,8,252,17.9z"/>
			</g>
			<g>
				<path class="st0" d="M81.2,202.5c-5.7,3.3-12.7,3.3-18.4,0c-5.7-3.3-9-9.3-8.8-15.8l0-70V47.3c-0.4-9.4,6.8-17.4,16.3-18.3
					c9.5-0.9,18.1,5.8,19.4,15.1c0.2,1.1,0.2,2.1,0.2,3.2v139.4C90.2,193.2,86.8,199.2,81.2,202.5z"/>
			</g>
			<g>
				<path class="st0" d="M198,58.9v128.4c0,9.8-8.1,17.8-18,17.8c-9.9,0-18-8-18-17.8c0-21.4,0-42.8,0.1-64.3v-64
					c-0.1-9.3,7.1-17.1,16.5-17.8c9.4-0.8,17.8,5.7,19.3,14.9C198,56.9,198,57.9,198,58.9z"/>
			</g>
			<g>
				<path class="st0" d="M144,82.5v104.6c0,9.9-8,17.9-18,17.9s-18-8-18-17.9c0-17.4,0-34.9,0-52.3V82.5
					c-0.3-9.4,6.8-17.4,16.2-18.4c9.4-0.9,18,5.6,19.5,14.8C143.9,80.1,144,81.3,144,82.5z"/>
			</g>
			<g>
				<path class="st0" d="M36,152.8v34.5c0,9.8-8.1,17.8-18,17.8c-9.9,0-18-8-18-17.8v-69.5C0,108,8.1,100,18,100c9.9,0,18,8,18,17.8
					C36,129.4,36,141.1,36,152.8z"/>
			</g>
		</g>
	</g>
</g>
</svg>
