<?xml version="1.0" encoding="utf-8"?>
<!-- Generator: Adobe Illustrator 23.0.1, SVG Export Plug-In . SVG Version: 6.00 Build 0)  -->
<svg version="1.1" id="Layer_1" xmlns="http://www.w3.org/2000/svg" xmlns:xlink="http://www.w3.org/1999/xlink" x="0px" y="0px"
	 viewBox="0 0 321 335" style="enable-background:new 0 0 321 335;" xml:space="preserve">
<style type="text/css">
	.st0{fill:#FFFFFF;}
</style>
<title>telcoin-icon</title>
<desc>Created with Sketch.</desc>
<g id="Page-1">
	<g id="telcoin-icon">
		<path id="Shape" class="st0" d="M304.9,90.6c-30.3-26-61-51.7-91.5-77.6C200.2,1.9,185.1-3.3,169,2.2C127.4,16.5,86,31.4,45,47.6
			C32.3,52.7,24.2,65,21.6,79.7C14.9,118.3,9,157.1,1.3,195.5c-4.2,21.3,1.6,37.5,17.1,50.8c22,19,43.9,38.2,66.4,56.4
			c16.7,13.5,30.6,32.4,58.8,32.3c2.5-0.6,8.9-1.6,14.9-3.8c34.4-12.3,68.5-25.5,103.2-37.1c23-7.7,36.2-22.1,39.9-47
			c5.1-33.9,11.2-67.7,17.4-101.4C323,124.7,322.1,105.3,304.9,90.6z M211.4,152.4h-44.8c-3.4,18.8-6.9,36.1-9.7,53.5
			c-1.4,8.5,2.8,13.2,11.4,13.3c9.7,0,19.4,0,30.9,0l-6.6,28.8c-17.1-1.1-33.7,3.7-49-3.1c-17.3-7.7-20.5-24-18.6-41.2
			c1.8-16.4,5.3-32.6,8.3-50.2l-17.5-1.9c-1.4-8.1,1.5-14.8,3.8-21.9c17.5-7.4,31.4-19.9,42.9-35.9h14.1
			c-1.4,10.9-2.7,21.2-4.3,33.1h42.4C217.1,136.5,214,143.9,211.4,152.4z"/>
	</g>
</g>
</svg>
