<svg xmlns="http://www.w3.org/2000/svg" viewBox="0 0 321 335"><defs><style>.cls-1{fill:#fff;}</style></defs><title>telcoin-white</title><g id="Layer_2" data-name="Layer 2"><g id="Layer_1-2" data-name="Layer 1"><g id="Page-1"><g id="telcoin-icon"><path id="Shape" class="cls-1" d="M304.86,90.59c-30.34-26-61.05-51.66-91.47-77.56C200.22,1.87,185.06-3.29,169,2.22,127.4,16.49,86,31.38,45.05,47.61,32.25,52.69,24.19,65,21.64,79.74,15,118.32,9,157.09,1.34,195.48c-4.25,21.26,1.64,37.46,17.12,50.8,22,19,43.86,38.19,66.43,56.4,16.68,13.46,30.64,32.4,58.82,32.32,2.55-.63,8.92-1.62,14.91-3.76,34.41-12.3,68.53-25.53,103.15-37.13,23-7.7,36.19-22.07,39.92-47,5.09-33.93,11.16-67.72,17.42-101.42C323,124.71,322.05,105.34,304.86,90.59Zm-93.44,61.76H166.65c-3.44,18.84-6.86,36.11-9.67,53.48-1.38,8.53,2.83,13.22,11.4,13.26,9.72,0,19.43,0,30.94,0l-6.6,28.83c-17.07-1.09-33.65,3.7-49-3.14-17.25-7.71-20.49-24-18.59-41.18,1.82-16.41,5.32-32.61,8.3-50.21L116,151.52c-1.39-8.12,1.53-14.76,3.85-22,17.54-7.45,31.39-19.85,42.86-35.89h14.09c-1.42,10.87-2.74,21.16-4.34,33.12h42.4C217.09,136.54,214,143.88,211.42,152.35Z"/></g></g></g></g></svg>